<svg width="154" height="58" viewBox="0 0 154 58" fill="none" xmlns="http://www.w3.org/2000/svg">
<path d="M3.66305 6.62739C1.919 6.62739 0.698242 5.23215 0.698242 3.31369C0.698242 1.56964 2.0934 0 3.66305 0C5.4071 0 6.62796 1.39523 6.62796 3.31369C6.62796 5.23215 5.4071 6.62739 3.66305 6.62739ZM3.66305 1.04644C2.44221 1.04644 1.57027 2.09287 1.57027 3.48811C1.57027 4.70895 2.44221 5.92977 3.66305 5.92977C4.88389 5.92977 5.75594 4.88335 5.75594 3.48811C5.75594 2.09287 4.88389 1.04644 3.66305 1.04644Z" fill="white"/>
<path d="M9.24361 1.22164C8.8948 1.22164 8.72042 1.39608 8.72042 1.9193V2.26808H10.1156V3.14011H8.72042V6.4538H7.84839V3.14011H7.3252V2.26808H7.84839V1.9193C7.84839 0.872868 8.37159 0.349609 9.24361 0.349609C9.59242 0.349609 9.76683 0.34962 10.1156 0.524025V1.39605C9.76683 1.39605 9.59242 1.22164 9.24361 1.22164Z" fill="white"/>
<path d="M12.3823 1.22164C12.0335 1.22164 11.8591 1.39608 11.8591 1.9193V2.26808H13.2543V3.14011H11.8591V6.4538H10.9871V3.14011H10.4639V2.26808H10.9871V1.9193C10.9871 0.872868 11.5103 0.349609 12.3823 0.349609C12.7311 0.349609 12.9055 0.34962 13.2543 0.524025V1.39605C12.9055 1.39605 12.5567 1.22164 12.3823 1.22164Z" fill="white"/>
<path d="M14.8244 1.39463C14.65 1.56904 14.6499 1.74348 14.4755 1.91788C14.3011 1.56907 14.1267 1.56904 14.1267 1.39463C13.9523 1.22023 13.7779 1.22026 13.6035 1.04586C13.9523 0.87145 13.9523 0.697023 14.1267 0.697023C14.3011 0.522618 14.3011 0.522639 14.4755 0.173828C14.6499 0.522639 14.8244 0.522618 14.8244 0.697023C14.9988 0.871429 15.1732 0.87145 15.3476 1.04586C14.9988 1.22026 14.8244 1.39463 14.8244 1.39463ZM13.9523 2.26666H14.8244V6.45238H13.9523V2.26666Z" fill="white"/>
<path d="M18.1375 6.62733C16.9166 6.62733 15.8701 5.58091 15.8701 4.36008C15.8701 3.13924 16.7422 2.09277 18.1375 2.09277C18.6607 2.09277 19.0095 2.2672 19.5327 2.44161V3.31363C19.1839 3.13923 18.8351 2.9648 18.3118 2.9648C17.4398 2.9648 16.9166 3.48805 16.9166 4.36008C16.9166 5.2321 17.4398 5.7553 18.3118 5.7553C18.8351 5.7553 19.1839 5.58091 19.5327 5.2321V6.27855C19.1839 6.45295 18.6607 6.62733 18.1375 6.62733Z" fill="white"/>
<path d="M21.4513 1.39463C21.2769 1.56904 21.2769 1.74348 21.1025 1.91788C20.9281 1.56907 20.7538 1.56904 20.7538 1.39463C20.5794 1.22023 20.4049 1.22026 20.2305 1.04586C20.5793 0.87145 20.5794 0.697023 20.7538 0.697023C20.9282 0.522618 20.9281 0.522639 21.1025 0.173828C21.2769 0.522639 21.4513 0.522618 21.4513 0.697023C21.6257 0.871429 21.8001 0.87145 21.9745 1.04586C21.8001 1.22026 21.6257 1.39463 21.4513 1.39463ZM20.7538 2.26666H21.6258V6.45238H20.7538V2.26666Z" fill="white"/>
<path d="M25.1146 6.45232V6.10354C24.7658 6.27795 24.4169 6.62674 23.8937 6.62674C23.1961 6.62674 22.6729 6.10355 22.6729 5.40593C22.6729 4.3595 23.7193 4.01065 24.7657 3.83624H25.1146C25.1146 3.31302 24.7658 3.13863 24.2425 3.13863C23.7193 3.13863 23.196 3.31307 22.8472 3.66188L23.196 2.61543C23.5449 2.44103 24.0681 2.2666 24.4169 2.2666C25.6377 2.2666 25.9866 2.96421 25.9866 3.83624V6.45232H25.1146ZM25.1146 4.5339H24.7657C24.0681 4.70831 23.5449 4.88272 23.5449 5.40593C23.5449 5.75474 23.7193 5.92913 24.0681 5.92913C24.4169 5.92913 24.9402 5.58034 25.1146 5.40593V4.5339Z" fill="white"/>
<path d="M28.2541 6.62822C27.382 6.62822 27.0332 6.10502 27.0332 5.23299V0.349609H27.9052V5.23299C27.9052 5.75621 27.9053 5.93061 28.2541 5.93061C28.4285 5.93061 28.4285 5.93061 28.6029 5.93061V6.80263C28.6029 6.62823 28.4285 6.62822 28.2541 6.62822Z" fill="white"/>
<path d="M30.6963 6.62822C29.8243 6.62822 29.4756 6.10502 29.4756 5.23299V0.349609H30.3476V5.23299C30.3476 5.75621 30.3475 5.93061 30.6963 5.93061C30.8707 5.93061 30.8708 5.93061 31.0452 5.93061V6.80263C31.0452 6.62823 30.8707 6.62822 30.6963 6.62822Z" fill="white"/>
<path d="M33.6598 7.15135C33.311 8.02338 32.9623 8.54657 32.0902 8.54657C31.9158 8.54657 31.7413 8.54657 31.5669 8.54657V7.67455C31.7413 7.67455 31.9158 7.67455 32.0902 7.67455C32.6135 7.67455 32.6135 7.50013 32.9623 6.6281L31.3926 2.44238H32.439L33.4855 5.58166L34.5319 2.44238H35.4039L33.6598 7.15135Z" fill="white"/>
<path d="M39.4161 6.62822C38.544 6.62822 38.1953 6.10502 38.1953 5.23299V0.349609H39.0673V5.23299C39.0673 5.75621 39.0673 5.93061 39.4161 5.93061C39.5905 5.93061 39.5905 5.93061 39.7649 5.93061V6.80263C39.7649 6.62823 39.7649 6.62822 39.4161 6.62822Z" fill="white"/>
<path d="M41.6838 1.39463C41.5093 1.56904 41.5093 1.74348 41.3349 1.91788C41.1605 1.56907 40.9861 1.56904 40.9861 1.39463C40.8117 1.22023 40.6373 1.22026 40.4629 1.04586C40.8117 0.87145 40.8117 0.697023 40.9861 0.697023C41.1605 0.522618 41.1605 0.522639 41.3349 0.173828C41.5093 0.522639 41.6838 0.522618 41.6838 0.697023C41.8582 0.871429 42.0325 0.87145 42.2069 1.04586C42.0325 1.22026 41.8582 1.39463 41.6838 1.39463ZM40.9861 2.26666H41.8581V6.45238H40.9861V2.26666Z" fill="white"/>
<path d="M45.1707 6.62733C43.9498 6.62733 42.9033 5.58091 42.9033 4.36008C42.9033 3.13924 43.7754 2.09277 45.1707 2.09277C45.6939 2.09277 46.0427 2.2672 46.5659 2.44161V3.31363C46.2171 3.13923 45.8683 2.9648 45.345 2.9648C44.473 2.9648 43.9498 3.48805 43.9498 4.36008C43.9498 5.2321 44.473 5.7553 45.345 5.7553C45.8683 5.7553 46.2171 5.58091 46.5659 5.2321V6.27855C46.0427 6.45295 45.6939 6.62733 45.1707 6.62733Z" fill="white"/>
<path d="M47.9624 4.70886C47.9624 5.40648 48.4856 5.7553 49.1833 5.7553C49.7065 5.7553 50.2296 5.58091 50.7529 5.2321V6.27855C50.2296 6.62736 49.7065 6.62733 49.1833 6.62733C47.9624 6.62733 46.916 5.75532 46.916 4.36008C46.916 3.13924 47.6136 2.09277 48.8344 2.09277C49.8809 2.09277 50.7529 2.96482 50.7529 4.18566V4.53449H47.9624V4.70886ZM49.0088 2.9648C48.4856 2.9648 48.1368 3.31361 47.9624 3.83683H49.8808C49.8808 3.48802 49.532 2.9648 49.0088 2.9648Z" fill="white"/>
<path d="M54.5887 6.45232V4.18507C54.5887 3.66186 54.4143 2.96421 53.7167 2.96421C53.3679 2.96421 53.0191 3.13865 52.8447 3.48746V6.45232H51.9727V2.2666H52.8447V2.61543C53.1935 2.26662 53.5423 2.2666 54.0655 2.2666C55.112 2.2666 55.6352 2.96422 55.6352 4.01066V6.45232H54.5887Z" fill="white"/>
<path d="M58.0774 6.62733C57.3798 6.62733 57.031 6.45294 56.5078 6.10413V5.2321C57.031 5.58091 57.5542 5.7553 58.2519 5.7553C58.6007 5.7553 58.9494 5.58091 58.9494 5.2321C58.9494 4.88329 58.7751 4.8833 57.903 4.53449C57.2054 4.36009 56.5078 4.01125 56.5078 3.31363C56.5078 2.44161 57.2054 2.09277 58.0774 2.09277C58.6006 2.09277 58.9494 2.2672 59.4726 2.44161V3.31363C59.1238 3.13923 58.6006 2.9648 58.0774 2.9648C57.5542 2.9648 57.3798 3.13923 57.3798 3.31363C57.3798 3.48804 57.5542 3.66242 58.4262 3.83683C59.1239 4.01123 59.8215 4.36008 59.8215 5.2321C59.647 6.27854 58.9494 6.62733 58.0774 6.62733Z" fill="white"/>
<path d="M61.3902 4.70886C61.3902 5.40648 61.9135 5.7553 62.6111 5.7553C63.1343 5.7553 63.6575 5.58091 64.1807 5.2321V6.27855C63.6575 6.62736 63.1343 6.62733 62.6111 6.62733C61.3903 6.62733 60.3438 5.75532 60.3438 4.36008C60.3438 3.13924 61.0414 2.09277 62.2623 2.09277C63.3087 2.09277 64.1807 2.96482 64.1807 4.18566V4.53449H61.3902V4.70886ZM62.2623 2.9648C61.7391 2.9648 61.3902 3.31361 61.2158 3.83683H63.1343C63.3087 3.48802 62.9599 2.9648 62.2623 2.9648Z" fill="white"/>
<path d="M68.192 6.45238V6.1036C68.0176 6.27801 67.4945 6.6268 66.9713 6.6268C65.7504 6.6268 65.0527 5.5804 65.0527 4.53396C65.0527 3.31313 65.7504 2.26666 66.9713 2.26666C67.3201 2.26666 67.8432 2.44109 68.192 2.61549V0.173828H69.064V6.45238H68.192ZM68.192 3.48752C67.8432 3.31312 67.4944 3.13869 67.1456 3.13869C66.448 3.13869 65.9248 3.83634 65.9248 4.53396C65.9248 5.23159 66.2736 5.92919 66.9713 5.92919C67.3201 5.92919 67.8432 5.7548 68.0176 5.40599V3.48752H68.192Z" fill="white"/>
<path d="M74.4708 6.62733C74.122 6.62733 73.5988 6.45295 73.25 6.27855V8.37138H72.3779V2.26719H73.25V2.61602C73.4244 2.44162 73.9476 2.09277 74.4708 2.09277C75.6917 2.09277 76.3892 3.13923 76.3892 4.18566C76.3892 5.5809 75.6917 6.62733 74.4708 6.62733ZM74.4708 3.13922C74.122 3.13922 73.5987 3.31365 73.4243 3.66247V5.58088C73.7731 5.75529 74.122 5.92971 74.4708 5.92971C75.1684 5.92971 75.6917 5.23211 75.6917 4.53449C75.5173 3.66247 75.1684 3.13922 74.4708 3.13922Z" fill="white"/>
<path d="M79.1806 3.13863C78.8318 3.13863 78.483 3.31307 78.3086 3.66188V6.62674H77.4365V2.44102H78.3086V2.78985C78.6574 2.44104 79.0061 2.2666 79.3549 2.2666C79.5293 2.2666 79.7038 2.2666 79.7038 2.2666V3.13863C79.5294 3.13863 79.355 3.13863 79.1806 3.13863Z" fill="white"/>
<path d="M81.4474 1.39463C81.273 1.56904 81.273 1.74348 81.0986 1.91788C80.9242 1.56907 80.7498 1.56904 80.7498 1.39463C80.5754 1.22023 80.401 1.22026 80.2266 1.04586C80.5754 0.87145 80.5754 0.697023 80.7498 0.697023C80.9242 0.522618 80.9242 0.522639 81.0986 0.173828C81.273 0.522639 81.4474 0.522618 81.4474 0.697023C81.6218 0.871429 81.7962 0.87145 81.9706 1.04586C81.6218 1.22026 81.4474 1.39463 81.4474 1.39463ZM80.5754 2.26666H81.4474V6.45238H80.5754V2.26666Z" fill="white"/>
<path d="M84.7609 6.45232H84.0634L82.3193 2.2666H83.3657L84.4122 5.23152L85.4586 2.2666H86.505L84.7609 6.45232Z" fill="white"/>
<path d="M89.2952 6.45232V6.10354C88.9464 6.27795 88.5976 6.62674 88.0744 6.62674C87.3768 6.62674 86.8535 6.10355 86.8535 5.40593C86.8535 4.3595 87.9 4.01065 88.9464 3.83624H89.2952C89.2952 3.31302 88.9464 3.13863 88.4232 3.13863C87.9 3.13863 87.3768 3.31307 87.028 3.66188L87.3767 2.61543C87.7255 2.44103 88.2488 2.2666 88.5976 2.2666C89.8184 2.2666 90.1673 2.96421 90.1673 3.83624V6.45232H89.2952ZM89.2952 4.5339H88.9464C88.2488 4.70831 87.7255 4.88272 87.7255 5.40593C87.7255 5.75474 87.8999 5.92913 88.2487 5.92913C88.5975 5.92913 89.1208 5.58034 89.2952 5.40593V4.5339Z" fill="white"/>
<path d="M92.9571 6.62728C91.9107 6.62728 91.5619 5.92967 91.5619 5.05764V3.13917H90.8643V2.26715H91.5619V1.2207H92.4339V2.26715H93.8292V3.13917H92.4339V4.88323C92.4339 5.40645 92.6083 5.75526 92.9571 5.75526C93.306 5.75526 93.4804 5.58088 93.8292 5.40648V6.2785C93.6548 6.45291 93.306 6.62728 92.9571 6.62728Z" fill="white"/>
<path d="M95.5747 4.70886C95.5747 5.40648 96.0979 5.7553 96.7956 5.7553C97.3188 5.7553 97.842 5.58091 98.3653 5.2321V6.27855C97.842 6.62736 97.3188 6.62733 96.7956 6.62733C95.5747 6.62733 94.5283 5.75532 94.5283 4.36008C94.5283 3.13924 95.2259 2.09277 96.4467 2.09277C97.4932 2.09277 98.3653 2.96482 98.3653 4.18566V4.53449H95.5747V4.70886ZM96.6212 2.9648C96.098 2.9648 95.7491 3.31361 95.5747 3.83683H97.4932C97.4932 3.48802 97.1444 2.9648 96.6212 2.9648Z" fill="white"/>
<path d="M104.47 6.45238V4.18513C104.47 3.66192 104.295 2.96427 103.598 2.96427C103.249 2.96427 102.9 3.13871 102.726 3.48752V6.45238H101.854V0.173828H102.726V2.61549C103.074 2.26668 103.423 2.26666 103.946 2.26666C104.993 2.26666 105.516 2.96428 105.516 4.01072V6.45238H104.47Z" fill="white"/>
<path d="M107.435 1.39463C107.26 1.56904 107.26 1.74348 107.086 1.91788C106.911 1.56907 106.737 1.56904 106.737 1.39463C106.563 1.22023 106.388 1.22026 106.214 1.04586C106.563 0.87145 106.563 0.697023 106.737 0.697023C106.911 0.522618 106.911 0.522639 107.086 0.173828C107.26 0.522639 107.435 0.522618 107.435 0.697023C107.609 0.871429 107.784 0.87145 107.958 1.04586C107.784 1.22026 107.609 1.39463 107.435 1.39463ZM106.737 2.26666H107.609V6.45238H106.737V2.26666Z" fill="white"/>
<path d="M110.747 3.13863C110.398 3.13863 110.049 3.31307 109.875 3.66188V6.62674H109.003V2.44102H109.875V2.78985C110.224 2.44104 110.573 2.2666 110.921 2.2666C111.096 2.2666 111.27 2.2666 111.27 2.2666V3.13863C111.096 3.13863 110.921 3.13863 110.747 3.13863Z" fill="white"/>
<path d="M112.666 4.70886C112.666 5.40648 113.189 5.7553 113.886 5.7553C114.41 5.7553 114.933 5.58091 115.456 5.2321V6.27855C114.933 6.62736 114.41 6.62733 113.886 6.62733C112.666 6.62733 111.619 5.75532 111.619 4.36008C111.619 3.13924 112.317 2.09277 113.538 2.09277C114.584 2.09277 115.456 2.96482 115.456 4.18566V4.53449H112.666V4.70886ZM113.712 2.9648C113.189 2.9648 112.84 3.31361 112.666 3.83683H114.584C114.584 3.48802 114.235 2.9648 113.712 2.9648Z" fill="white"/>
<path d="M120.863 6.62733C119.642 6.62733 118.596 5.75532 118.596 4.36008C118.596 3.13924 119.642 2.09277 120.863 2.09277C122.084 2.09277 123.13 3.13924 123.13 4.36008C122.956 5.75532 122.084 6.62733 120.863 6.62733ZM120.863 3.13922C119.991 3.13922 119.468 3.83687 119.468 4.53449C119.468 5.40652 119.991 5.92971 120.863 5.92971C121.561 5.92971 122.084 5.40652 122.084 4.53449C122.084 3.66247 121.561 3.13922 120.863 3.13922Z" fill="white"/>
<path d="M125.921 6.62733C125.572 6.62733 125.049 6.45295 124.7 6.27855V8.37138H123.828V2.26719H124.7V2.61602C124.875 2.44162 125.398 2.09277 125.921 2.09277C127.142 2.09277 127.839 3.13923 127.839 4.18566C127.839 5.5809 127.316 6.62733 125.921 6.62733ZM125.921 3.13922C125.572 3.13922 125.049 3.31365 124.875 3.66247V5.58088C125.223 5.75529 125.572 5.92971 125.921 5.92971C126.619 5.92971 127.142 5.23211 127.142 4.53449C126.967 3.66247 126.619 3.13922 125.921 3.13922Z" fill="white"/>
<path d="M129.583 4.70886C129.583 5.40648 130.107 5.7553 130.804 5.7553C131.328 5.7553 131.851 5.58091 132.374 5.2321V6.27855C131.851 6.62736 131.328 6.62733 130.804 6.62733C129.584 6.62733 128.537 5.75532 128.537 4.36008C128.537 3.13924 129.235 2.09277 130.456 2.09277C131.502 2.09277 132.374 2.96482 132.374 4.18566V4.53449H129.583V4.70886ZM130.63 2.9648C130.107 2.9648 129.758 3.31361 129.583 3.83683H131.502C131.502 3.48802 131.153 2.9648 130.63 2.9648Z" fill="white"/>
<path d="M135.338 3.13863C134.989 3.13863 134.64 3.31307 134.466 3.66188V6.62674H133.594V2.44102H134.466V2.78985C134.815 2.44104 135.163 2.2666 135.512 2.2666C135.687 2.2666 135.861 2.2666 135.861 2.2666V3.13863C135.512 3.13863 135.512 3.13863 135.338 3.13863Z" fill="white"/>
<path d="M138.652 6.45232V6.10354C138.303 6.27795 137.954 6.62674 137.431 6.62674C136.733 6.62674 136.21 6.10355 136.21 5.40593C136.21 4.3595 137.256 4.01065 138.303 3.83624H138.652C138.652 3.31302 138.303 3.13863 137.78 3.13863C137.256 3.13863 136.733 3.31307 136.384 3.66188L136.733 2.61543C137.082 2.44103 137.605 2.2666 137.954 2.2666C139.175 2.2666 139.524 2.96421 139.524 3.83624V6.45232H138.652ZM138.652 4.5339H138.303C137.605 4.70831 137.082 4.88272 137.082 5.40593C137.082 5.75474 137.256 5.92913 137.605 5.92913C137.954 5.92913 138.477 5.58034 138.652 5.40593V4.5339Z" fill="white"/>
<path d="M142.315 6.62728C141.269 6.62728 140.92 5.92967 140.92 5.05764V3.13917H140.223V2.26715H140.92V1.2207H141.792V2.26715H143.187V3.13917H141.792V4.88323C141.792 5.40645 141.967 5.75526 142.315 5.75526C142.664 5.75526 142.839 5.58088 143.187 5.40648V6.2785C143.013 6.45291 142.664 6.62728 142.315 6.62728Z" fill="white"/>
<path d="M146.152 6.62733C144.931 6.62733 143.885 5.75532 143.885 4.36008C143.885 3.13924 144.931 2.09277 146.152 2.09277C147.373 2.09277 148.419 3.13924 148.419 4.36008C148.419 5.75532 147.373 6.62733 146.152 6.62733ZM146.152 3.13922C145.28 3.13922 144.757 3.83687 144.757 4.53449C144.757 5.40652 145.28 5.92971 146.152 5.92971C146.85 5.92971 147.373 5.40652 147.373 4.53449C147.373 3.66247 147.024 3.13922 146.152 3.13922Z" fill="white"/>
<path d="M151.034 3.13863C150.685 3.13863 150.336 3.31307 150.162 3.66188V6.62674H149.29V2.44102H150.162V2.78985C150.511 2.44104 150.86 2.2666 151.209 2.2666C151.383 2.2666 151.557 2.2666 151.557 2.2666V3.13863C151.383 3.13863 151.208 3.13863 151.034 3.13863Z" fill="white"/>
<path d="M153.477 6.10367C153.302 6.27808 153.302 6.45246 153.128 6.62687C152.953 6.27806 152.779 6.27808 152.779 6.10367C152.605 5.92927 152.43 5.92925 152.256 5.75484C152.605 5.58043 152.605 5.40606 152.779 5.40606C152.953 5.23166 152.953 5.05722 153.128 4.88281C153.302 5.23162 153.477 5.23166 153.477 5.40606C153.651 5.58047 153.826 5.58043 154 5.75484C153.826 5.92925 153.651 5.92927 153.477 6.10367Z" fill="white"/>
<path d="M0.87207 17.7883V11.5098H1.91846V16.9163H4.53454V17.7883H0.87207Z" fill="white"/>
<path d="M6.45328 12.7306C6.27888 12.905 6.27885 13.0794 6.10445 13.2538C5.93004 12.905 5.75562 12.905 5.75562 12.7306C5.58121 12.5562 5.40683 12.5562 5.23242 12.3818C5.58123 12.2074 5.58121 12.033 5.75562 12.033C5.93002 11.8586 5.93004 11.8586 6.10445 11.5098C6.27885 11.8586 6.45328 11.8586 6.45328 12.033C6.62769 12.2074 6.80207 12.2074 6.97648 12.3818C6.62767 12.3818 6.62769 12.5562 6.45328 12.7306ZM5.58125 13.6026H6.45328V17.7883H5.58125V13.6026Z" fill="white"/>
<path d="M9.76627 17.7884C8.54543 17.7884 7.49902 16.742 7.49902 15.5212C7.49902 14.3003 8.37103 13.2539 9.76627 13.2539C10.2895 13.2539 10.6384 13.4283 11.1616 13.6027V14.4747C10.8128 14.3003 10.464 14.1259 9.94074 14.1259C9.06872 14.1259 8.54552 14.6491 8.54552 15.5212C8.54552 16.3932 9.06872 16.9164 9.94074 16.9164C10.464 16.9164 10.8128 16.742 11.1616 16.3932V17.4396C10.8128 17.7884 10.2895 17.7884 9.76627 17.7884Z" fill="white"/>
<path d="M12.5563 15.87C12.5563 16.5676 13.0795 16.9164 13.7771 16.9164C14.3003 16.9164 14.8235 16.742 15.3467 16.3932V17.4396C14.8235 17.7884 14.3003 17.7884 13.7771 17.7884C12.5563 17.7884 11.5098 16.9164 11.5098 15.5212C11.5098 14.3003 12.2075 13.2539 13.4283 13.2539C14.4747 13.2539 15.3467 14.1259 15.3467 15.3467V15.6956H12.5563V15.87ZM13.6027 14.3003C13.0794 14.3003 12.7307 14.6491 12.5563 15.1723H14.4747C14.6491 14.6491 14.3003 14.3003 13.6027 14.3003Z" fill="white"/>
<path d="M19.1844 17.7892V15.522C19.1844 14.9988 19.01 14.3011 18.3124 14.3011C17.9636 14.3011 17.6148 14.4756 17.4404 14.8244V17.7892H16.5684V13.6035H17.4404V13.9523C17.7892 13.6035 18.138 13.6035 18.6612 13.6035C19.7077 13.6035 20.2308 14.3011 20.2308 15.3476V17.7892H19.1844Z" fill="white"/>
<path d="M22.8469 17.7884C22.1493 17.7884 21.8006 17.614 21.2773 17.2652V16.3932C21.8006 16.742 22.3238 16.9164 23.0214 16.9164C23.3702 16.9164 23.719 16.742 23.719 16.3932C23.719 16.0444 23.5446 16.0444 22.6726 15.6956C21.9749 15.5212 21.2773 15.1723 21.2773 14.4747C21.2773 13.6027 21.9749 13.2539 22.8469 13.2539C23.3701 13.2539 23.719 13.4283 24.2423 13.6027V14.4747C23.8934 14.3003 23.3701 14.1259 22.8469 14.1259C22.3237 14.1259 22.1494 14.3003 22.1494 14.4747C22.1494 14.6491 22.3237 14.8236 23.1958 14.998C23.8934 15.1724 24.591 15.5212 24.591 16.3932C24.4166 17.4396 23.5446 17.7884 22.8469 17.7884Z" fill="white"/>
<path d="M25.9859 15.87C25.9859 16.5676 26.5091 16.9164 27.2067 16.9164C27.7299 16.9164 28.2532 16.742 28.7764 16.3932V17.4396C28.2532 17.7884 27.7299 17.7884 27.2067 17.7884C25.9859 17.7884 24.9395 16.9164 24.9395 15.5212C24.9395 14.3003 25.6371 13.2539 26.858 13.2539C27.9044 13.2539 28.7764 14.1259 28.7764 15.3467V15.6956H25.9859V15.87ZM27.0323 14.3003C26.5091 14.3003 26.1604 14.6491 25.9859 15.1723H27.9044C27.9044 14.6491 27.5556 14.3003 27.0323 14.3003Z" fill="white"/>
<path d="M32.7887 17.7889V17.2657C32.6143 17.4401 32.091 17.7889 31.5678 17.7889C30.347 17.7889 29.6494 16.7425 29.6494 15.6961C29.6494 14.4752 30.347 13.4288 31.5678 13.4288C31.9166 13.4288 32.4399 13.6032 32.7887 13.7776V11.3359H33.6607V17.6145H32.7887V17.7889ZM32.7887 14.6496C32.4399 14.4752 32.0911 14.3008 31.7423 14.3008C31.0447 14.3008 30.5214 14.9985 30.5214 15.6961C30.5214 16.3937 30.8702 17.0913 31.5678 17.0913C31.9166 17.0913 32.4399 16.9169 32.6143 16.5681V14.6496H32.7887Z" fill="white"/>
<path d="M39.2413 17.7889C38.7181 17.7889 38.1949 17.4401 38.0205 17.2657V17.6145H37.1484V11.3359H38.0205V13.7776C38.3693 13.6032 38.7182 13.4288 39.067 13.4288C40.2878 13.4288 40.9854 14.4752 40.9854 15.6961C41.1598 16.9169 40.4622 17.7889 39.2413 17.7889ZM39.067 14.3008C38.7182 14.3008 38.3693 14.4752 38.0205 14.6496V16.5681C38.1949 16.7425 38.7182 17.0913 39.067 17.0913C39.7646 17.0913 40.1134 16.3937 40.1134 15.6961C40.1134 14.9985 39.7646 14.3008 39.067 14.3008Z" fill="white"/>
<path d="M43.7751 18.3125C43.4263 19.1845 43.0775 19.7077 42.2055 19.7077C42.0311 19.7077 41.8567 19.7077 41.6823 19.7077V18.8357C41.8567 18.8357 42.0311 18.8357 42.2055 18.8357C42.7287 18.8357 42.7287 18.6613 43.0775 17.7892L41.5078 13.6035H42.5543L43.6007 16.7428L44.6471 13.6035H45.5191L43.7751 18.3125Z" fill="white"/>
<path d="M50.9253 12.3818V17.7883H50.0533V12.3818H48.1348V11.5098H52.8437V12.3818H50.9253Z" fill="white"/>
<path d="M54.9374 14.3017C54.5886 14.3017 54.2398 14.4762 54.0654 14.825V17.7898H53.1934V13.6041H54.0654V13.9529C54.4142 13.6041 54.763 13.4297 55.1118 13.4297C55.2862 13.4297 55.4606 13.4297 55.4606 13.4297V14.3017C55.2862 14.3017 55.1118 14.3017 54.9374 14.3017Z" fill="white"/>
<path d="M58.2513 17.7892V17.4405C57.9025 17.6149 57.5536 17.9637 57.0304 17.9637C56.3328 17.9637 55.8096 17.4405 55.8096 16.7428C55.8096 15.6964 56.856 15.3476 57.9025 15.1732H58.2513C58.2513 14.6499 57.9025 14.4755 57.3793 14.4755C56.856 14.4755 56.3327 14.65 55.9839 14.9988L56.3328 13.9523C56.6816 13.7779 57.2048 13.6035 57.5536 13.6035C58.7745 13.6035 59.1233 14.3011 59.1233 15.1732V17.7892H58.2513ZM58.2513 15.6964H57.9025C57.2048 15.8708 56.6816 16.0452 56.6816 16.5684C56.6816 16.9172 56.856 17.0916 57.2048 17.0916C57.5536 17.0916 58.0769 16.7428 58.2513 16.5684V15.6964Z" fill="white"/>
<path d="M63.1346 17.7892V15.522C63.1346 14.9988 62.9602 14.3011 62.2626 14.3011C61.9138 14.3011 61.565 14.4756 61.3906 14.8244V17.7892H60.5186V13.6035H61.3906V13.9523C61.7394 13.6035 62.0882 13.6035 62.6114 13.6035C63.6579 13.6035 64.181 14.3011 64.181 15.3476V17.7892H63.1346Z" fill="white"/>
<path d="M66.6224 17.7884C65.9248 17.7884 65.576 17.614 65.0527 17.2652V16.3932C65.576 16.742 66.0992 16.9164 66.7968 16.9164C67.1456 16.9164 67.4945 16.742 67.4945 16.3932C67.4945 16.0444 67.32 16.0444 66.448 15.6956C65.7503 15.5212 65.0527 15.1723 65.0527 14.4747C65.0527 13.6027 65.7504 13.2539 66.6224 13.2539C67.1456 13.2539 67.4944 13.4283 68.0176 13.6027V14.4747C67.6688 14.3003 67.1456 14.1259 66.6224 14.1259C66.0992 14.1259 65.9248 14.3003 65.9248 14.4747C65.9248 14.6491 66.0992 14.8236 66.9713 14.998C67.6689 15.1724 68.3665 15.5212 68.3665 16.3932C68.1921 17.4396 67.4945 17.7884 66.6224 17.7884Z" fill="white"/>
<path d="M71.1564 17.7884C70.8076 17.7884 70.2843 17.614 69.9355 17.4396V19.5325H69.0635V13.4283H69.9355V13.7771C70.1099 13.6027 70.6331 13.2539 71.1564 13.2539C72.3772 13.2539 73.0749 14.3003 73.0749 15.3467C73.0749 16.9164 72.3772 17.7884 71.1564 17.7884ZM71.1564 14.3003C70.8076 14.3003 70.2844 14.4747 70.11 14.8235V16.742C70.4588 16.9164 70.8076 17.0908 71.1564 17.0908C71.854 17.0908 72.3772 16.3932 72.3772 15.6956C72.2028 14.998 71.854 14.3003 71.1564 14.3003Z" fill="white"/>
<path d="M76.0407 17.7884C74.8198 17.7884 73.7734 16.9164 73.7734 15.5212C73.7734 14.3003 74.8198 13.2539 76.0407 13.2539C77.2615 13.2539 78.308 14.3003 78.308 15.5212C78.308 16.9164 77.2615 17.7884 76.0407 17.7884ZM76.0407 14.3003C75.1687 14.3003 74.6455 14.998 74.6455 15.6956C74.6455 16.5676 75.1687 17.0908 76.0407 17.0908C76.7383 17.0908 77.2615 16.5676 77.2615 15.6956C77.2615 14.998 76.9127 14.3003 76.0407 14.3003Z" fill="white"/>
<path d="M80.9247 14.3017C80.5759 14.3017 80.2271 14.4762 80.0527 14.825V17.7898H79.1807V13.6041H80.0527V13.9529C80.4015 13.6041 80.7503 13.4297 81.0991 13.4297C81.2735 13.4297 81.4479 13.4297 81.4479 13.4297V14.3017C81.2735 14.3017 81.0991 14.3017 80.9247 14.3017Z" fill="white"/>
<path d="M83.8897 17.7884C82.8432 17.7884 82.4944 17.0908 82.4944 16.2187V14.3003H81.7969V13.4282H82.4944V12.3818H83.3665V13.4282H84.7617V14.3003H83.3665V16.0443C83.3665 16.5675 83.5408 16.9163 83.8897 16.9163C84.2385 16.9163 84.4129 16.742 84.7617 16.5676V17.4396C84.4129 17.7884 84.2385 17.7884 83.8897 17.7884Z" fill="white"/>
<path d="M89.4702 12.5576C89.1214 12.5576 88.947 12.732 88.947 13.2552V13.604H90.3422V14.476H88.947V17.7897H88.075V14.476H87.5518V13.604H88.075V13.2552C88.075 12.2088 88.5981 11.6855 89.4702 11.6855C89.819 11.6855 89.9934 11.6856 90.3422 11.86V12.732C89.9934 12.5576 89.819 12.5576 89.4702 12.5576Z" fill="white"/>
<path d="M92.9577 17.7884C91.7368 17.7884 90.6904 16.9164 90.6904 15.5212C90.6904 14.3003 91.7368 13.2539 92.9577 13.2539C94.1785 13.2539 95.2249 14.3003 95.2249 15.5212C95.2249 16.9164 94.1785 17.7884 92.9577 17.7884ZM92.9577 14.3003C92.0857 14.3003 91.5625 14.998 91.5625 15.6956C91.5625 16.5676 92.0857 17.0908 92.9577 17.0908C93.6553 17.0908 94.1785 16.5676 94.1785 15.6956C94.1785 14.998 93.8297 14.3003 92.9577 14.3003Z" fill="white"/>
<path d="M97.8407 14.3017C97.4919 14.3017 97.1431 14.4762 96.9687 14.825V17.7898H96.0967V13.6041H96.9687V13.9529C97.3175 13.6041 97.6664 13.4297 98.0152 13.4297C98.1896 13.4297 98.364 13.4297 98.364 13.4297V14.3017C98.1896 14.3017 98.0151 14.3017 97.8407 14.3017Z" fill="white"/>
<path d="M101.504 17.7883V11.5098H102.376V16.9163H105.166V17.7883H101.504Z" fill="white"/>
<path d="M107.783 17.7884C106.562 17.7884 105.516 16.9164 105.516 15.5212C105.516 14.3003 106.562 13.2539 107.783 13.2539C109.004 13.2539 110.05 14.3003 110.05 15.5212C110.05 16.9164 109.004 17.7884 107.783 17.7884ZM107.783 14.3003C106.911 14.3003 106.388 14.998 106.388 15.6956C106.388 16.5676 106.911 17.0908 107.783 17.0908C108.48 17.0908 109.004 16.5676 109.004 15.6956C109.004 14.998 108.655 14.3003 107.783 14.3003Z" fill="white"/>
<path d="M113.713 17.7892V15.522C113.713 14.9988 113.538 14.3011 112.841 14.3011C112.492 14.3011 112.143 14.4756 111.969 14.8244V17.7892H111.097V13.6035H111.969V13.9523C112.318 13.6035 112.666 13.6035 113.19 13.6035C114.236 13.6035 114.759 14.3011 114.759 15.3476V17.7892H113.713Z" fill="white"/>
<path d="M118.596 17.7889V17.2657C118.422 17.4401 117.899 17.7889 117.375 17.7889C116.155 17.7889 115.457 16.7425 115.457 15.6961C115.457 14.4752 116.155 13.4288 117.375 13.4288C117.724 13.4288 118.247 13.6032 118.596 13.7776V11.3359H119.468V17.6145H118.596V17.7889ZM118.596 14.6496C118.247 14.4752 117.899 14.3008 117.55 14.3008C116.852 14.3008 116.329 14.9985 116.329 15.6961C116.329 16.3937 116.678 17.0913 117.375 17.0913C117.724 17.0913 118.248 16.9169 118.422 16.5681V14.6496H118.596Z" fill="white"/>
<path d="M122.607 17.7884C121.386 17.7884 120.34 16.9164 120.34 15.5212C120.34 14.3003 121.386 13.2539 122.607 13.2539C123.828 13.2539 124.874 14.3003 124.874 15.5212C124.874 16.9164 123.828 17.7884 122.607 17.7884ZM122.607 14.3003C121.735 14.3003 121.212 14.998 121.212 15.6956C121.212 16.5676 121.735 17.0908 122.607 17.0908C123.305 17.0908 123.828 16.5676 123.828 15.6956C123.828 14.998 123.479 14.3003 122.607 14.3003Z" fill="white"/>
<path d="M128.537 17.7892V15.522C128.537 14.9988 128.363 14.3011 127.665 14.3011C127.316 14.3011 126.967 14.4756 126.793 14.8244V17.7892H125.921V13.6035H126.793V13.9523C127.142 13.6035 127.491 13.6035 128.014 13.6035C129.06 13.6035 129.583 14.3011 129.583 15.3476V17.7892H128.537Z" fill="white"/>
<path d="M131.676 17.2668C131.502 17.4412 131.502 17.6155 131.327 17.79C131.153 17.4411 130.978 17.4412 130.978 17.2668C130.804 17.0924 130.629 17.0923 130.455 16.9179C130.804 16.7435 130.804 16.5691 130.978 16.5691C131.153 16.3947 131.153 16.2203 131.327 16.0459C131.502 16.3947 131.676 16.3947 131.676 16.5691C131.85 16.7436 132.025 16.7435 132.199 16.9179C132.025 17.0923 131.85 17.2668 131.676 17.2668Z" fill="white"/>
<path d="M28.2539 42.0321C28.2539 47.4387 23.8937 51.7987 18.4871 51.7987C13.0805 51.7987 8.72044 47.4387 8.72044 42.0321C8.72044 36.6255 13.0805 32.2654 18.4871 32.2654C23.8937 32.2654 28.2539 36.6255 28.2539 42.0321ZM18.4871 27.0332C10.1156 27.0332 3.48828 33.835 3.48828 42.0321C3.48828 50.4035 10.2901 57.0309 18.4871 57.0309C26.8586 57.0309 33.486 50.2291 33.486 42.0321C33.6604 33.6606 26.8586 27.0332 18.4871 27.0332Z" fill="white"/>
<path d="M37.1483 39.0674H0V45.1716H37.1483V39.0674Z" fill="white"/>
<path d="M51.1004 31.9173V39.5911H49.3563V31.9173H46.7402V30.3477H53.8909V31.9173H51.1004Z" fill="white"/>
<path d="M58.4251 34.1839C57.7275 34.1839 57.3786 34.3583 56.681 34.8816V39.5905H55.1113V32.7887H56.681V33.4863C57.2042 32.7887 57.7275 32.6143 58.4251 32.6143C58.5995 32.6143 58.7739 32.6143 58.9483 32.6143V34.0095C58.7739 34.1839 58.5995 34.1839 58.4251 34.1839Z" fill="white"/>
<path d="M63.6575 39.5903V39.0671C63.1342 39.5903 62.4366 39.7647 61.5646 39.7647C60.3437 39.7647 59.4717 38.8927 59.4717 37.8462C59.4717 36.2766 61.0414 35.4045 63.4831 35.2301C63.4831 34.5325 62.9598 34.1838 62.0878 34.1838C61.3901 34.1838 60.5181 34.3581 59.8205 34.8814L60.1693 33.3117C60.867 32.9629 61.5646 32.9629 62.2622 32.9629C63.1343 32.9629 63.8319 33.1373 64.3551 33.6605C64.7039 34.0093 64.8783 34.7069 64.8783 35.579V39.9391H63.6575V39.5903ZM63.6575 36.1022C62.0878 36.2766 61.2157 36.7998 61.2157 37.4974C61.2157 38.0207 61.5645 38.3695 62.0878 38.3695C62.611 38.3695 62.9599 38.195 63.4831 37.8462V36.1022H63.6575Z" fill="white"/>
<path d="M71.5066 39.5905V35.7536C71.5066 34.7072 71.1578 34.1839 70.1114 34.1839C69.5882 34.1839 69.065 34.3583 68.7162 34.7071V39.5905H67.1465V32.7887H68.7162V33.3119C69.2394 32.7887 69.937 32.6143 70.4602 32.6143C72.3787 32.6143 73.2507 33.6607 73.2507 35.4048V39.5905H71.5066Z" fill="white"/>
<path d="M77.2608 39.7643C76.2144 39.7643 75.3424 39.4155 74.4704 38.8923V37.3226C75.168 37.8459 76.2144 38.3691 77.2608 38.3691C77.784 38.3691 78.1328 38.1946 78.1328 37.8458C78.1328 37.3226 77.6096 37.1482 76.912 36.9738C75.3423 36.4506 74.2959 36.1018 74.2959 34.7066C74.2959 33.4857 75.3423 32.7881 76.912 32.7881C77.784 32.7881 78.4817 32.9625 79.1793 33.3113V34.7066C78.4817 34.1833 77.6097 34.0089 77.0864 34.0089C76.3888 34.0089 76.04 34.3577 76.04 34.5321C76.04 34.881 76.2144 35.0554 77.2608 35.4042C78.6561 35.753 79.7025 36.2762 79.7025 37.6715C79.8769 38.8923 78.8305 39.7643 77.2608 39.7643Z" fill="white"/>
<path d="M84.4118 39.7643C83.8886 39.7643 83.3654 39.5899 82.8422 39.2411V42.206H81.2725V32.9625H82.8422V33.4857C83.191 33.1369 83.8886 32.7881 84.5862 32.7881C86.5047 32.7881 87.9 34.3577 87.9 36.2762C87.5511 38.1947 86.3303 39.7643 84.4118 39.7643ZM84.063 34.1834C83.5398 34.1834 83.191 34.3577 82.8422 34.5321V37.8458C83.191 38.0202 83.5398 38.1947 84.2374 38.1947C85.4582 38.1947 86.1559 37.497 86.1559 36.1018C85.9815 34.8809 85.2839 34.1834 84.063 34.1834Z" fill="white"/>
<path d="M92.0858 39.7643C90.1673 39.7643 88.5977 38.1947 88.5977 36.2762C88.5977 34.3577 90.1673 32.7881 92.0858 32.7881C94.0042 32.7881 95.5739 34.3577 95.5739 36.2762C95.5739 38.1947 94.0042 39.7643 92.0858 39.7643ZM92.0858 34.1834C91.0393 34.1834 90.1673 35.0553 90.1673 36.1018C90.1673 37.1482 91.0393 38.0202 92.0858 38.0202C93.1322 38.0202 94.0043 37.1482 94.0043 36.1018C94.0043 35.0553 93.1322 34.1834 92.0858 34.1834Z" fill="white"/>
<path d="M100.458 34.1839C99.7605 34.1839 99.4117 34.3583 98.7141 34.8816V39.5905H97.1445V32.7887H98.7141V33.4863C99.2373 32.7887 99.7605 32.6143 100.458 32.6143C100.633 32.6143 100.807 32.6143 100.981 32.6143V34.0095C100.807 34.1839 100.633 34.1839 100.458 34.1839Z" fill="white"/>
<path d="M104.818 39.7656C103.423 39.7656 102.376 39.068 102.376 37.4983V34.1846H101.155V32.9638H102.202V31.2197H103.771V32.7894H106.213V34.0102H103.771V37.1495C103.771 37.4983 103.771 38.1959 104.992 38.1959C105.341 38.1959 105.864 38.0215 106.387 37.8471V39.2424C106.039 39.5912 105.341 39.7656 104.818 39.7656Z" fill="white"/>
<path d="M50.4033 45.1711C49.5313 45.1711 49.1825 45.8687 49.1825 46.7407H51.4497V47.9616H49.1825V53.3681H47.6128V47.9616H46.5664V46.7407H47.6128C47.6128 44.8222 48.3105 43.9502 50.0545 43.9502C50.5777 43.9502 51.2753 43.9502 51.6241 44.1246V45.5199C51.2753 45.3455 50.9266 45.1711 50.4033 45.1711Z" fill="white"/>
<path d="M55.4608 53.7165C53.5423 53.7165 51.9727 52.1468 51.9727 50.2283C51.9727 48.3099 53.5423 46.7402 55.4608 46.7402C57.3792 46.7402 58.9489 48.3099 58.9489 50.2283C58.9489 52.1468 57.3792 53.7165 55.4608 53.7165ZM55.4608 48.1355C54.4143 48.1355 53.5423 49.0075 53.5423 50.0539C53.5423 51.1004 54.4143 51.9724 55.4608 51.9724C56.5072 51.9724 57.3793 51.1004 57.3793 50.0539C57.3793 49.0075 56.5072 48.1355 55.4608 48.1355Z" fill="white"/>
<path d="M63.8322 47.9612C63.1346 47.9612 62.7858 48.1356 62.0881 48.6589V53.3678H60.5186V46.566H62.0881V47.2636C62.6114 46.7404 63.1346 46.3916 63.8322 46.3916C64.0066 46.3916 64.1811 46.3916 64.3555 46.3916V47.7868C64.1811 48.1356 64.0066 47.9612 63.8322 47.9612Z" fill="white"/>
<path d="M68.8906 53.5433V44.2998H70.6347V51.7992H74.646V53.5433H68.8906Z" fill="white"/>
<path d="M78.8319 53.7165C76.9134 53.7165 75.3438 52.1468 75.3438 50.2283C75.3438 48.3099 76.9134 46.7402 78.8319 46.7402C80.7503 46.7402 82.32 48.3099 82.32 50.2283C82.32 52.1468 80.7503 53.7165 78.8319 53.7165ZM78.8319 48.1355C77.7854 48.1355 76.9133 49.0075 76.9133 50.0539C76.9133 51.1004 77.7854 51.9724 78.8319 51.9724C79.8783 51.9724 80.7503 51.1004 80.7503 50.0539C80.7503 49.0075 79.8783 48.1355 78.8319 48.1355Z" fill="white"/>
<path d="M88.2488 53.5426V49.7057C88.2488 48.6593 87.9 48.1361 86.8536 48.1361C86.3304 48.1361 85.8072 48.3105 85.4584 48.6593V53.5426H83.8887V46.7408H85.4584V47.2641C85.9816 46.7409 86.6792 46.5664 87.2024 46.5664C89.1209 46.5664 89.9929 47.6128 89.9929 49.3569V53.5426H88.2488Z" fill="white"/>
<path d="M96.272 53.5433V53.0201C95.9232 53.3689 95.3999 53.7177 94.7023 53.7177C92.7839 53.7177 91.3887 52.148 91.3887 50.2296C91.3887 48.3111 92.6094 46.7415 94.7023 46.7415C95.2255 46.7415 95.9232 46.9159 96.272 47.2647V44.2998H97.8416V53.5433H96.272ZM96.0975 48.4855C95.7487 48.3111 95.3999 48.1367 94.7023 48.1367C93.4815 48.1367 92.7839 48.8343 92.7839 50.0552C92.7839 51.276 93.4815 52.1481 94.7023 52.1481C95.2255 52.1481 95.5744 51.9736 95.9232 51.7992V48.4855H96.0975Z" fill="white"/>
<path d="M102.726 53.7165C100.807 53.7165 99.2374 52.1469 99.2374 50.2284C99.2374 48.3099 100.807 46.7403 102.726 46.7403C104.644 46.7403 106.214 48.3099 106.214 50.2284C106.214 52.1469 104.644 53.7165 102.726 53.7165ZM102.726 48.1356C101.679 48.1356 100.807 49.0076 100.807 50.054C100.807 51.1004 101.679 51.9725 102.726 51.9725C103.772 51.9725 104.644 51.1004 104.644 50.054C104.644 49.0076 103.772 48.1356 102.726 48.1356Z" fill="white"/>
<path d="M112.142 53.5426V49.7057C112.142 48.6593 111.794 48.1361 110.747 48.1361C110.224 48.1361 109.701 48.3105 109.352 48.6593V53.5426H107.782V46.7408H109.352V47.2641C109.875 46.7409 110.573 46.5664 111.096 46.5664C113.014 46.5664 113.886 47.6128 113.886 49.3569V53.5426H112.142Z" fill="white"/>
</svg>

